# xmcd
#
# Track frame offsets: 
#        150
#        18995
#        37782
#        53465
#        69602
#        89347
#        104317
#        122260
#        135637
#        154202
#        172285
#        194475
#        221702
#        238290
#        254035
#        271117
#        286260
#        299690
#
# Disc length: 4193 seconds
#
# Revision: 7
# Processed by: cddbd v1.5.2PL0 Copyright (c) Steve Scherf et al.
# Submitted via: ExactAudioCopyFreeDBPlugin 1.0
#
DISCID=11105f12
DTITLE=Various Artist - Blind Pig Records 20th Aniversary Collection [disk 1]
DYEAR=1997
DGENRE=Blues
TTITLE0=Coco Montoya - Monkey See, Monkey Do
TTITLE1=Jimmy Thackery and The Drivers - Drive to Survive
TTITLE2=Magic Slim and The Teardrops - Think
TTITLE3=Carey Bell - That Spot Right There
TTITLE4=Debbie Davies - Howlin' at the Moon
TTITLE5=Jimmy Rogers - Tricky Woman
TTITLE6=Roy Rogers - She's Cold as Ice
TTITLE7=John Lee Hooker - Terraplane Blues
TTITLE8=Gospel Hummingbirds - Don't Move the Mountain
TTITLE9=E. C. Scott - I Need a Real Man
TTITLE10=Tommy Castro - Had Enough
TTITLE11=Otis Rush - Right Place, Wrong Time
TTITLE12=Buddy Guy and Junior Wells - Messin' with the Kid
TTITLE13=Chubby Carrier - Wastin' Time
TTITLE14=Joanna Connor - Big Girl Blues
TTITLE15=Pinetop Perkins - Worried Life Blues
TTITLE16=James Cotton - Take Me Back
TTITLE17=Luther Allison - Should I Wait
EXTD=LABEL =Blind Pig Records\nID =bpcd2001\nUPC =019148-200128\nCO
EXTD=PYRIGHT =1997
EXTT0=
EXTT1=
EXTT2=
EXTT3=
EXTT4=
EXTT5=
EXTT6=
EXTT7=
EXTT8=
EXTT9=
EXTT10=
EXTT11=
EXTT12=
EXTT13=
EXTT14=
EXTT15=
EXTT16=
EXTT17=
PLAYORDER=
